<svg width="50" height="50" viewBox="0 0 50 50" fill="none" xmlns="http://www.w3.org/2000/svg">
<path d="M21.25 19H28.75V26.5H36.25V34H28.75V41.5H21.25V34H13.75V26.5H21.25V19Z" stroke="#EB016E" stroke-width="2" stroke-miterlimit="10" stroke-linecap="round" stroke-linejoin="round"/>
<path d="M43.75 48.25H6.25C3.775 48.25 1.75 46.225 1.75 43.75V16.75C1.75 14.275 3.775 12.25 6.25 12.25H43.75C46.225 12.25 48.25 14.275 48.25 16.75V43.75C48.25 46.225 46.225 48.25 43.75 48.25Z" stroke="#202E35" stroke-width="2" stroke-miterlimit="10" stroke-linecap="round" stroke-linejoin="round"/>
<path d="M14.5 9.25V7C14.5 4.075 16.825 1.75 19.75 1.75H30.25C33.175 1.75 35.5 4.075 35.5 7V9.25" stroke="#202E35" stroke-width="2" stroke-miterlimit="10" stroke-linecap="square" stroke-linejoin="round"/>
<path d="M19.75 9.25V7H30.25V9.25" stroke="#202E35" stroke-width="2" stroke-miterlimit="10" stroke-linecap="square" stroke-linejoin="round"/>
</svg>
