<svg width="133" height="99" viewBox="0 0 133 99" fill="none" xmlns="http://www.w3.org/2000/svg">
<path d="M60.2905 76.0413L132 34.5291V56.4827L60.2905 97.5958V76.0413Z" stroke="black" stroke-width="1.5" stroke-linejoin="round"/>
<path d="M1 64.0668V42.5123L60.2905 76.0415V97.5959L1 64.0668Z" stroke="black" stroke-width="1.5" stroke-linejoin="round"/>
<path d="M72.7094 1L1 42.5123L60.2905 76.0414L132 34.5291L72.7094 1Z" stroke="black" stroke-width="1.5" stroke-linejoin="round"/>
<path d="M116.375 54.0878L121.583 50.8946V44.9072L116.375 48.1005V54.0878Z" stroke="black" stroke-width="1.5" stroke-linejoin="round"/>
<path d="M109.165 58.4784L114.373 55.2852V48.8987L109.165 52.0919V58.4784Z" stroke="black" stroke-width="1.5" stroke-linejoin="round"/>
<path d="M101.954 62.1383L107.162 59.0604V53.2893L101.954 56.4063V62.1383Z" stroke="black" stroke-width="1.5" stroke-linejoin="round"/>
<path d="M94.7427 66.5L99.9506 63.3067V57.281L94.7427 60.4271V66.5Z" stroke="black" stroke-width="1.5" stroke-linejoin="round"/>
<path d="M116.375 62.071L121.583 58.692V53.4867L116.375 56.6799V62.071Z" stroke="black" stroke-width="1.5" stroke-linejoin="round"/>
<path d="M109.165 66.4616L114.373 63.2684V57.6676L109.165 60.8609V66.4616Z" stroke="black" stroke-width="1.5" stroke-linejoin="round"/>
<path d="M101.954 70.4531L107.162 67.2598V61.7284L101.954 64.9216V70.4531Z" stroke="black" stroke-width="1.5" stroke-linejoin="round"/>
<path d="M94.7427 74.8439L99.9506 71.6506V65.9093L94.7427 69.1026V74.8439Z" stroke="black" stroke-width="1.5" stroke-linejoin="round"/>
<path d="M80.8145 82.7232L82.8175 81.5257V71.2715L80.8145 72.3451V82.7232Z" stroke="black" stroke-width="1.5" stroke-linejoin="round"/>
<path d="M85.1523 80.1205L87.1554 78.9231V68.6688L85.1523 69.7425V80.1205Z" stroke="black" stroke-width="1.5" stroke-linejoin="round"/>
<path d="M76.4766 85.1035L78.4796 83.906V73.9271L76.4766 75.1246V85.1035Z" stroke="black" stroke-width="1.5" stroke-linejoin="round"/>
<path d="M67.8013 90.2558L69.8043 89.0584V79.0795L67.8013 80.2769V90.2558Z" stroke="black" stroke-width="1.5" stroke-linejoin="round"/>
<path d="M72.1392 87.6532L74.1422 86.4557V76.4768L72.1392 77.6743V87.6532Z" stroke="black" stroke-width="1.5" stroke-linejoin="round"/>
<path d="M63.0947 92.8063L65.0978 91.6088V81.6299L63.0947 82.8273V92.8063Z" stroke="black" stroke-width="1.5" stroke-linejoin="round"/>
<path d="M126.792 42.5123C127.994 41.714 129.196 42.5123 129.196 43.7097C129.196 45.3064 127.994 46.903 126.792 47.7013C125.59 48.4996 124.388 47.7013 124.388 46.5038C124.388 44.9072 125.59 42.9114 126.792 42.5123Z" fill="#EB016E"/>
<path d="M126.391 50.8943C127.593 50.096 128.795 50.8943 128.795 52.0918C128.795 53.6884 127.993 55.2851 126.391 56.0834C125.189 56.8817 123.987 56.0834 123.987 54.8859C123.987 53.2893 124.789 51.6927 126.391 50.8943Z" fill="#EB016E"/>
</svg>
