<svg width="171" height="18" viewBox="0 0 171 18" fill="none" xmlns="http://www.w3.org/2000/svg">
<path d="M13.134 11.038C13.134 6.748 10.142 4.812 6.864 4.812C3.586 4.812 0.594 6.748 0.594 11.038C0.594 15.328 3.586 17.286 6.864 17.286C10.142 17.286 13.134 15.328 13.134 11.038ZM4.29 11.038C4.29 8.53 5.434 7.628 6.864 7.628C8.294 7.628 9.438 8.53 9.438 11.038C9.438 13.524 8.338 14.47 6.864 14.47C5.39 14.47 4.29 13.524 4.29 11.038ZM22.3525 15.35V17H25.9825V5.164H22.3525V11.412C22.3525 13.59 21.7585 14.47 20.2185 14.47C18.4585 14.47 18.4145 13.084 18.4145 11.39V5.164H14.7845V12.292C14.7845 15.504 15.7305 17.286 18.8765 17.286C20.7025 17.286 21.6265 16.516 22.3525 15.35ZM29.1766 1.93V5.164H27.3066V7.738H29.1766V13.678C29.1766 16.45 30.1886 17 33.0926 17H35.4026V14.382H34.3686C33.1586 14.382 32.8066 14.162 32.8066 13.04V7.738H35.4026V5.164H32.8066V1.93H29.1766ZM43.0693 3.8C44.6753 3.8 45.8413 4.482 46.2153 5.67H49.9333C49.3833 2.15 46.4133 0.785999 43.2893 0.785999C40.1653 0.785999 36.6673 2.304 36.6673 5.56C36.6673 8.42 39.0213 9.652 41.6173 10.202L43.5533 10.598C45.2913 10.972 46.5233 11.478 46.5233 12.512C46.5233 13.832 45.0713 14.25 43.7953 14.25C41.8373 14.25 40.5173 13.48 40.0993 11.808H36.3593C36.9313 15.24 39.6153 17.286 43.7073 17.286C47.0293 17.286 50.3953 15.394 50.3953 12.05C50.3953 8.706 47.1393 7.914 44.5653 7.386L42.3873 6.946C41.2873 6.704 40.5393 6.132 40.5393 5.34C40.5393 4.35 41.6173 3.8 43.0693 3.8ZM64.1164 11.038C64.1164 6.748 61.1244 4.812 57.8464 4.812C54.5684 4.812 51.5764 6.748 51.5764 11.038C51.5764 15.328 54.5684 17.286 57.8464 17.286C61.1244 17.286 64.1164 15.328 64.1164 11.038ZM55.2724 11.038C55.2724 8.53 56.4164 7.628 57.8464 7.628C59.2764 7.628 60.4204 8.53 60.4204 11.038C60.4204 13.524 59.3204 14.47 57.8464 14.47C56.3724 14.47 55.2724 13.524 55.2724 11.038ZM73.3349 15.35V17H76.9649V5.164H73.3349V11.412C73.3349 13.59 72.7409 14.47 71.2009 14.47C69.4409 14.47 69.3969 13.084 69.3969 11.39V5.164H65.7669V12.292C65.7669 15.504 66.7129 17.286 69.8589 17.286C71.6849 17.286 72.6089 16.516 73.3349 15.35ZM86.8691 8.64V5.098C86.6931 5.076 86.4951 5.076 86.3191 5.076C84.6251 5.142 83.6351 6.022 83.0851 7.408V5.164H79.5871V17H83.2171V11.06C83.2171 9.212 84.1411 8.574 85.8791 8.574C86.2091 8.574 86.4731 8.596 86.8691 8.64ZM99.6371 9.498C98.9331 5.934 96.2271 4.812 93.7631 4.812C90.1771 4.812 87.7131 7.276 87.7131 11.016C87.7131 14.778 89.8691 17.286 93.7631 17.286C96.1391 17.286 98.9551 16.186 99.7911 12.644H96.4031C96.1391 13.766 95.3251 14.47 93.9831 14.47C92.7071 14.47 91.4091 13.612 91.4091 11.038C91.4091 8.53 92.6851 7.628 93.9831 7.628C95.0611 7.628 95.9411 8.134 96.2491 9.498H99.6371ZM113.312 13.282H109.968C109.55 13.986 108.67 14.47 107.306 14.47C105.986 14.47 104.688 13.678 104.578 12.006H113.356C113.598 7.804 111.178 4.812 107.262 4.812C103.808 4.812 100.926 7.232 100.926 11.016C100.926 14.932 103.566 17.286 107.416 17.286C109.792 17.286 112.256 16.076 113.312 13.282ZM104.622 9.806C104.82 8.244 105.986 7.584 107.262 7.584C108.626 7.584 109.704 8.332 109.748 9.806H104.622Z" fill="black"/>
<path d="M113.975 17H117.605L124.051 1.05H120.421L113.975 17ZM134.545 5.164H130.805L129.441 13.194L127.879 5.164H124.161L126.889 17H131.091L132.675 8.266L134.259 17H138.483L141.211 5.164H137.493L135.931 13.194L134.545 5.164ZM146.252 1.05H142.622V3.954H146.252V1.05ZM146.274 5.164H142.622V17H146.274V5.164ZM148.522 12.688H156.288V9.63H148.522V12.688ZM158.894 4.416V5.164H157.288V7.738H158.894V17H162.524V7.738H165.142V5.164H162.524V4.57C162.524 3.668 162.81 3.602 164.108 3.602H165.142V1.05H163.294C160.126 1.05 158.894 1.622 158.894 4.416ZM170.315 1.05H166.685V3.954H170.315V1.05ZM170.337 5.164H166.685V17H170.337V5.164Z" fill="#EB016E"/>
</svg>
